# xmcd
#
# Track frame offsets:
#	150
#	20977
#	34040
#	41152
#	118135
#	129795
#	139660
#	165107
#	178640
#	192017
#	228000
#	246382
#
# Disc length: 4199 seconds
#
# Revision: 2
# Processed by: cddbd v1.5.2PL0 Copyright (c) Steve Scherf et al.
# Submitted via: audiograbber 1.83.01
#
DISCID=9810650c
DTITLE=Eiji Oue and Minnesota Orchestra - Bolero! -  Orchestral Fireworks [HDCD]
DYEAR=2000
DGENRE=Classical
TTITLE0=Dimitri Kabalevsky - Colas Breugnon - Overture op. 24
TTITLE1=Deems Taylor - Looking Glass Insects
TTITLE2=Nikolai Rimsky-Korsakov - The Flight Of The Bumblebee
TTITLE3=Franz Liszt - Les Préludes, Symphonic Poem No. 3
TTITLE4=Johannes Brahms - Hungarian Dance No. 3 in F
TTITLE5=Dinicu/Schmid - Hora Staccato
TTITLE6=Antonín Dvorâk - Slavonic Dance op. 72 #2
TTITLE7=Armas Järnefelt - Praeludium
TTITLE8=Hector Berlioz - Dance Of The Sylphs
TTITLE9=Otto Klemperer - Merry Waltz
TTITLE10=Emmanuel Chabrier - Habanera
TTITLE11=Maurice Ravel - Boléro
EXTD=
EXTT0=
EXTT1=
EXTT2=
EXTT3=
EXTT4=
EXTT5=
EXTT6=
EXTT7=
EXTT8=
EXTT9=
EXTT10=
EXTT11=
PLAYORDER=
